<svg width="55" height="55" viewBox="0 0 55 55" xmlns="http://www.w3.org/2000/svg">
    <g fill="none" fill-rule="evenodd">
        <circle fill="#000" cx="27.5" cy="27.5" r="27.5"/>
        <g stroke="#FFF" stroke-linecap="round" stroke-linejoin="round" stroke-width="1.5">
            <path d="M31.02 26.913a3.297 3.297 0 1 0 0-6.594M32.536 30.496a10.9 10.9 0 0 1 1.617.233c.74.147 1.63.45 1.945 1.113.202.425.202.92 0 1.345-.315.663-1.206.966-1.945 1.118M24.591 31.206c3.69 0 6.842.56 6.842 2.792 0 2.234-3.132 2.812-6.842 2.812-3.69 0-6.84-.558-6.84-2.792s3.13-2.812 6.84-2.812zM24.591 28.019a4.369 4.369 0 0 1-4.384-4.385 4.368 4.368 0 0 1 4.384-4.384 4.37 4.37 0 0 1 4.385 4.384 4.37 4.37 0 0 1-4.385 4.385z"/>
        </g>
    </g>
</svg>
